<?xml version="1.0" encoding="utf-8"?>
<!-- Svg Vector Icons : http://www.onlinewebfonts.com/icon -->
<!DOCTYPE svg PUBLIC "-//W3C//DTD SVG 1.1//EN" "http://www.w3.org/Graphics/SVG/1.1/DTD/svg11.dtd">
<svg version="1.1" xmlns="http://www.w3.org/2000/svg" xmlns:xlink="http://www.w3.org/1999/xlink" x="0px" y="0px" viewBox="0 0 1000 1000" enable-background="new 0 0 1000 1000" xml:space="preserve">
<metadata> Svg Vector Icons : http://www.onlinewebfonts.com/icon </metadata>
<g><path d="M356.6,320.4c0,171.4,139,310.4,310.4,310.4c171.4,0,310.4-139,310.4-310.4C977.3,149,838.4,10,667,10C495.6,10,356.6,149,356.6,320.4L356.6,320.4z"/><path d="M22.7,776c0,118.2,95.8,214,214,214s214-95.8,214-214c0-118.2-95.8-214-214-214S22.7,657.7,22.7,776L22.7,776z"/><path d="M644.6,841.5c0,81.5,66.1,147.5,147.5,147.5c81.5,0,147.5-66.1,147.5-147.5c0-81.5-66.1-147.5-147.5-147.5C710.7,694,644.6,760,644.6,841.5z"/></g>
</svg>