<?xml version="1.0" encoding="utf-8"?>
<!-- Generator: Adobe Illustrator 16.0.0, SVG Export Plug-In . SVG Version: 6.00 Build 0)  -->
<!DOCTYPE svg PUBLIC "-//W3C//DTD SVG 1.1//EN" "http://www.w3.org/Graphics/SVG/1.1/DTD/svg11.dtd">
<svg version="1.1" id="Layer_1" xmlns="http://www.w3.org/2000/svg" xmlns:xlink="http://www.w3.org/1999/xlink" x="0px" y="0px"
	 width="512px" height="512px" viewBox="0 0 512 512" enable-background="new 0 0 512 512" xml:space="preserve">
<path d="M176.969,356.094l45.75-45.719c24.5,14.406,56.563,11.313,77.563-9.688c21-21.031,24.094-53.063,9.688-77.594l45.719-45.719
	c38.969,50.188,35.969,122.438-10.156,168.531C299.438,392.031,227.156,395.063,176.969,356.094z M222.688,200.438
	c19.938-11.688,44.719-11.688,64.656,0l45.719-45.688c-45.969-35.688-110.094-35.688-156.094,0L222.688,200.438z M154.344,177.375
	c-35.688,45.969-35.688,110.125,0,156.094l45.719-45.719c-11.719-19.938-11.719-44.75,0-64.688L154.344,177.375z M240,97.219V0.406
	C111.406,8.375,8.781,111.031,0.813,239.594h96.813C105.219,164.313,164.719,104.844,240,97.219z M256,415.594
	c-82.719,0-150.219-63.375-158.375-144H0.813c8.281,133.906,119.219,240,255.188,240s246.906-106.125,255.188-240h-96.813
	C406.219,352.219,338.75,415.594,256,415.594z M414.375,239.594h96.813C503.219,111.031,400.563,8.375,272,0.406v96.813
	C347.281,104.844,406.75,164.313,414.375,239.594z"/>
</svg>
